<svg width="31" height="31" viewBox="0 0 31 31" fill="none" xmlns="http://www.w3.org/2000/svg">
<path d="M15.387 20.2636C18.1543 20.2145 20.358 17.9365 20.309 15.1755C20.26 12.4145 17.9769 10.2161 15.2096 10.2652C12.4422 10.3143 10.2386 12.5924 10.2876 15.3534C10.3366 18.1144 12.6197 20.3128 15.387 20.2636Z" stroke="#FF69B4" stroke-opacity="0.3" stroke-width="2.5" stroke-linecap="round" stroke-linejoin="round"/>
<path d="M15.0764 2.76641L15.1208 5.26601" stroke="#FF69B4" stroke-opacity="0.3" stroke-width="2.5" stroke-linecap="round" stroke-linejoin="round"/>
<path d="M15.4757 25.2629L15.5201 27.7625" stroke="#FF69B4" stroke-opacity="0.3" stroke-width="2.5" stroke-linecap="round" stroke-linejoin="round"/>
<path d="M6.28503 6.58551L8.08258 8.31639" stroke="#FF69B4" stroke-opacity="0.3" stroke-width="2.5" stroke-linecap="round" stroke-linejoin="round"/>
<path d="M22.514 22.2125L24.3116 23.9434" stroke="#FF69B4" stroke-opacity="0.3" stroke-width="2.5" stroke-linecap="round" stroke-linejoin="round"/>
<path d="M2.77148 15.4868L5.27683 15.4423" stroke="#FF69B4" stroke-opacity="0.3" stroke-width="2.5" stroke-linecap="round" stroke-linejoin="round"/>
<path d="M25.3197 15.0866L27.8251 15.0421" stroke="#FF69B4" stroke-opacity="0.3" stroke-width="2.5" stroke-linecap="round" stroke-linejoin="round"/>
<path d="M8.33365 22.4642L6.59866 24.2577" stroke="#FF69B4" stroke-opacity="0.3" stroke-width="2.5" stroke-linecap="round" stroke-linejoin="round"/>
<path d="M23.9978 6.27114L22.2628 8.06471" stroke="#FF69B4" stroke-opacity="0.3" stroke-width="2.5" stroke-linecap="round" stroke-linejoin="round"/>
</svg>
