<svg width="33" height="33" viewBox="0 0 33 33" fill="none" xmlns="http://www.w3.org/2000/svg">
<path d="M16.1614 6.76128C16.1661 5.97017 16.4054 5.19822 16.8492 4.54303C17.2929 3.88785 17.9211 3.37887 18.6543 3.08045C19.3875 2.78203 20.1928 2.70758 20.9684 2.86651C21.744 3.02545 22.455 3.41062 23.0115 3.97333C23.568 4.53605 23.945 5.25102 24.0949 6.02785C24.2447 6.80467 24.1607 7.60845 23.8534 8.33755C23.5461 9.06665 23.0294 9.68832 22.3685 10.1239C21.7076 10.5596 20.9323 10.7896 20.1406 10.7849M16.1614 6.76128C16.1661 5.97017 15.9359 5.19544 15.4999 4.53505C15.064 3.87466 14.4419 3.35828 13.7122 3.05121C12.9826 2.74414 12.1782 2.66017 11.4008 2.80991C10.6234 2.95965 9.90791 3.33639 9.34479 3.89248C8.78167 4.44857 8.39621 5.15903 8.23717 5.93403C8.07813 6.70903 8.15264 7.51375 8.45129 8.24643C8.74993 8.97911 9.25929 9.60685 9.91496 10.0503C10.5706 10.4937 11.3432 10.7328 12.1349 10.7375M16.1614 6.76128L16.1535 8.09459M20.1406 10.7849C20.9323 10.7896 21.7048 11.0288 22.3605 11.4722C23.0162 11.9156 23.5255 12.5433 23.8242 13.276C24.1228 14.0087 24.1973 14.8134 24.0383 15.5884C23.8793 16.3634 23.4938 17.0739 22.9307 17.6299C22.3676 18.186 21.6521 18.5628 20.8747 18.7125C20.0973 18.8623 19.2929 18.7783 18.5633 18.4712C17.8336 18.1641 17.2115 17.6478 16.7755 16.9874C16.3396 16.327 16.1094 15.5523 16.1141 14.7611M20.1406 10.7849L18.8063 10.777M12.1349 10.7375C11.3432 10.7328 10.5679 10.9629 9.90699 11.3985C9.24612 11.8341 8.72936 12.4558 8.42207 13.1849C8.11478 13.914 8.03075 14.7178 8.18061 15.4946C8.33047 16.2714 8.70749 16.9864 9.264 17.5491C9.8205 18.1118 10.5315 18.497 11.3071 18.6559C12.0826 18.8148 12.8879 18.7404 13.6212 18.442C14.3544 18.1436 14.9826 17.6346 15.4263 16.9794C15.8701 16.3242 16.1094 15.5523 16.1141 14.7611M12.1349 10.7375L13.4692 10.7454M16.1141 14.7611L16.122 13.4278" stroke="#FF69B4" stroke-opacity="0.3" stroke-width="2.66667" stroke-linecap="round" stroke-linejoin="round"/>
<path d="M16.1219 13.4278C17.5958 13.4365 18.7976 12.2497 18.8063 10.777C18.815 9.30426 17.6273 8.1033 16.1535 8.09458C14.6797 8.08586 13.4778 9.27268 13.4691 10.7454C13.4604 12.2182 14.6481 13.4191 16.1219 13.4278Z" stroke="#FF69B4" stroke-opacity="0.3" stroke-width="2.66667" stroke-linecap="round" stroke-linejoin="round"/>
<path d="M16.122 13.4279L16.0273 29.4276" stroke="#FF69B4" stroke-opacity="0.3" stroke-width="2.66667" stroke-linecap="round" stroke-linejoin="round"/>
<path d="M16.0273 29.4275C21.6313 29.4607 25.3805 27.2602 25.4068 22.8162C19.8027 22.7831 16.0536 24.9836 16.0273 29.4275Z" stroke="#FF69B4" stroke-opacity="0.3" stroke-width="2.66667" stroke-linecap="round" stroke-linejoin="round"/>
<path d="M16.0273 29.4276C10.4233 29.3944 6.70041 27.1497 6.7267 22.7057C12.3307 22.7389 16.0536 24.9836 16.0273 29.4276Z" stroke="#FF69B4" stroke-opacity="0.3" stroke-width="2.66667" stroke-linecap="round" stroke-linejoin="round"/>
</svg>
