<svg width="31" height="30" viewBox="0 0 31 30" fill="none" xmlns="http://www.w3.org/2000/svg">
<path d="M22.1053 22.6478L12.1217 23.3481C10.597 23.4546 9.07297 23.139 7.7199 22.4364C6.36684 21.7338 5.23806 20.6719 4.45971 19.3694C3.68136 18.067 3.2841 16.5752 3.31232 15.0609C3.34054 13.5466 3.79313 12.0693 4.61951 10.7942C5.4459 9.51906 6.61353 8.49631 7.99191 7.84024C9.3703 7.18416 10.9051 6.9206 12.4249 7.07901C13.9447 7.23742 15.3896 7.81155 16.5981 8.73726C17.8065 9.66296 18.731 10.9038 19.2682 12.321L21.3706 12.1736C22.7724 12.0752 24.1554 12.5327 25.2155 13.4453C26.2756 14.358 26.9259 15.651 27.0233 17.04C27.1207 18.4289 26.6573 19.8001 25.735 20.8518C24.8127 21.9034 23.507 22.5495 22.1053 22.6478Z" stroke="#FF69B4" stroke-opacity="0.3" stroke-width="2.33333" stroke-linecap="round" stroke-linejoin="round"/>
</svg>
