<svg width="45" height="40" viewBox="0 0 45 40" fill="none" xmlns="http://www.w3.org/2000/svg">
<g clip-path="url(#clip0_2_97)">
<path d="M26.2926 15.7579C26.3364 16.239 26.5311 16.7108 26.8565 17.1244C27.1819 17.5379 27.626 17.8781 28.1426 18.1095L37.3018 22.2109C37.4573 22.2845 37.584 22.3973 37.6625 22.5323C37.7411 22.6673 37.7673 22.8171 37.7372 22.959C37.707 23.1009 37.6222 23.2272 37.4955 23.3186C37.3689 23.41 37.2073 23.4617 37.0353 23.4656L26.9996 23.4922C26.4337 23.4936 25.8898 23.6238 25.4245 23.8692C24.9593 24.1146 24.5895 24.4663 24.3538 24.8877L20.1798 32.3637C20.1047 32.491 19.9805 32.5908 19.8263 32.6479C19.672 32.7051 19.4961 32.7164 19.3254 32.6801C19.1547 32.6439 18.9986 32.5621 18.8808 32.4472C18.7631 32.3323 18.6902 32.1906 18.6733 32.0438L17.8993 23.517C17.8555 23.036 17.6608 22.5641 17.3354 22.1506C17.0101 21.737 16.566 21.3968 16.0493 21.1654L6.88985 17.0653C6.73287 16.9923 6.60475 16.8794 6.52514 16.7438C6.44554 16.6082 6.41884 16.4575 6.44915 16.3147C6.47946 16.172 6.56511 16.0451 6.69294 15.9536C6.82078 15.8621 6.98375 15.8109 7.15685 15.808L17.1921 15.7841C17.7582 15.7826 18.3022 15.6523 18.7676 15.4066C19.2329 15.161 19.6026 14.809 19.8381 14.3873L24.0121 6.91124C24.0872 6.78396 24.2114 6.68414 24.3656 6.62701C24.5199 6.56988 24.6958 6.55857 24.8665 6.59482C25.0372 6.63107 25.1933 6.71289 25.3111 6.82778C25.4288 6.94267 25.5017 7.08434 25.5186 7.23116L26.2926 15.7579Z" stroke="#FF69B4" stroke-opacity="0.3" stroke-width="2.66667" stroke-linecap="round" stroke-linejoin="round"/>
<path d="M7.08838 28.7181L8.19626 23.5011" stroke="#FF69B4" stroke-opacity="0.3" stroke-width="2.66667" stroke-linecap="round" stroke-linejoin="round"/>
<path d="M4.51356 25.4452L10.771 26.774" stroke="#FF69B4" stroke-opacity="0.3" stroke-width="2.66667" stroke-linecap="round" stroke-linejoin="round"/>
<path d="M35.9957 15.7739L36.5497 13.1654" stroke="#FF69B4" stroke-opacity="0.3" stroke-width="2.66667" stroke-linecap="round" stroke-linejoin="round"/>
<path d="M34.7083 14.1374L37.837 14.8018" stroke="#FF69B4" stroke-opacity="0.3" stroke-width="2.66667" stroke-linecap="round" stroke-linejoin="round"/>
</g>
<defs>
<clipPath id="clip0_2_97">
<rect width="38.3819" height="32" fill="white" transform="translate(37.5447 39.2749) rotate(-168.011)"/>
</clipPath>
</defs>
</svg>
