<svg width="38" height="37" viewBox="0 0 38 37" fill="none" xmlns="http://www.w3.org/2000/svg">
<g clip-path="url(#clip0_2_169)">
<path d="M14.8362 21.184C14.8751 20.7676 14.7974 20.3454 14.6112 19.9613C14.4251 19.5772 14.1372 19.2452 13.7776 19L7.40212 14.6525C7.29445 14.5754 7.21473 14.4672 7.17506 14.3443C7.13538 14.2214 7.13791 14.0906 7.18227 13.9716C7.22662 13.8527 7.31038 13.7522 7.42083 13.6853C7.53128 13.6184 7.6624 13.5888 7.79428 13.601L15.46 14.4886C15.8922 14.5388 16.327 14.4765 16.7191 14.3083C17.1113 14.1401 17.4464 13.8721 17.6898 13.5321L22.001 7.50092C22.0775 7.3986 22.1873 7.32428 22.3137 7.28929C22.4401 7.2543 22.5761 7.26057 22.7009 7.30713C22.8258 7.3537 22.9327 7.43801 23.0053 7.54719C23.0779 7.65638 23.1122 7.78446 23.103 7.91187L22.4112 15.2929C22.3723 15.7093 22.45 16.1315 22.6361 16.5156C22.8223 16.8997 23.1102 17.2317 23.4698 17.477L29.8457 21.8233C29.9545 21.9001 30.0353 22.0086 30.0757 22.1321C30.1161 22.2555 30.1138 22.3872 30.0692 22.5068C30.0246 22.6264 29.9401 22.7274 29.8287 22.7943C29.7174 22.8612 29.5853 22.8903 29.4527 22.8771L21.7878 21.9872C21.3554 21.9371 20.9204 21.9995 20.5282 22.1679C20.136 22.3363 19.8008 22.6046 19.5576 22.9448L15.2463 28.976C15.1698 29.0783 15.06 29.1526 14.9337 29.1876C14.8073 29.2226 14.6713 29.2164 14.5464 29.1698C14.4216 29.1232 14.3147 29.0389 14.2421 28.9297C14.1695 28.8205 14.1352 28.6925 14.1443 28.565L14.8362 21.184Z" stroke="#FF69B4" stroke-opacity="0.3" stroke-width="2.33333" stroke-linecap="round" stroke-linejoin="round"/>
<path d="M31.4471 11.8143L29.8165 16.1868" stroke="#FF69B4" stroke-opacity="0.3" stroke-width="2.33333" stroke-linecap="round" stroke-linejoin="round"/>
<path d="M32.9204 14.8541L28.3432 13.1471" stroke="#FF69B4" stroke-opacity="0.3" stroke-width="2.33333" stroke-linecap="round" stroke-linejoin="round"/>
<path d="M7.43088 20.2902L6.61556 22.4764" stroke="#FF69B4" stroke-opacity="0.3" stroke-width="2.33333" stroke-linecap="round" stroke-linejoin="round"/>
<path d="M8.16754 21.81L5.87891 20.9565" stroke="#FF69B4" stroke-opacity="0.3" stroke-width="2.33333" stroke-linecap="round" stroke-linejoin="round"/>
</g>
<defs>
<clipPath id="clip0_2_169">
<rect width="29.3112" height="28" fill="white" transform="translate(9.78378) rotate(20.4519)"/>
</clipPath>
</defs>
</svg>
