<svg width="28" height="28" viewBox="0 0 28 28" fill="none" xmlns="http://www.w3.org/2000/svg">
<path d="M14.0813 3.68635C12.7041 4.99759 11.9057 6.8007 11.8619 8.699C11.8181 10.5973 12.5325 12.4353 13.8478 13.8087C15.1631 15.182 16.9717 15.9782 18.8756 16.0222C20.7795 16.0661 22.6229 15.3541 24.0001 14.0429C23.9539 16.0449 23.3134 17.9882 22.1594 19.627C21.0055 21.2659 19.39 22.5267 17.5172 23.2501C15.6444 23.9734 13.5985 24.1268 11.6382 23.6908C9.6778 23.2548 7.89107 22.249 6.50389 20.8006C5.11672 19.3522 4.19141 17.5263 3.84498 15.5537C3.49854 13.5811 3.74654 11.5505 4.55762 9.71864C5.36869 7.88676 6.70641 6.33589 8.40161 5.26215C10.0968 4.18841 12.0734 3.64003 14.0813 3.68635Z" stroke="#FF69B4" stroke-opacity="0.3" stroke-width="2.25" stroke-linecap="round" stroke-linejoin="round"/>
</svg>
