<svg width="40" height="44" viewBox="0 0 40 44" fill="none" xmlns="http://www.w3.org/2000/svg">
<g clip-path="url(#clip0_2_54)">
<path d="M7.06971 25.1103C6.93994 25.0681 6.82064 24.9855 6.72527 24.8718C6.6299 24.7582 6.56225 24.618 6.52996 24.4671C6.49767 24.3162 6.50203 24.1606 6.54253 24.0178C6.58304 23.8751 6.65808 23.7509 6.7592 23.6593L12.1047 18.8255C12.4565 18.5071 12.7305 18.0897 12.9031 17.609C13.0757 17.1283 13.1419 16.5986 13.0958 16.0656L12.393 7.96399C12.3795 7.81052 12.4033 7.65853 12.4617 7.52521C12.52 7.3919 12.6106 7.28257 12.7233 7.20961C12.8359 7.13664 12.9661 7.10294 13.099 7.11233C13.232 7.12171 13.3624 7.1738 13.4756 7.26271L19.44 11.9542C19.8335 12.2635 20.2802 12.4624 20.7416 12.5337C21.2029 12.605 21.665 12.5466 22.0882 12.3635L28.5016 9.58222C28.6235 9.52853 28.7583 9.51657 28.8905 9.54771C29.0228 9.57885 29.1472 9.65182 29.2496 9.75832C29.352 9.86481 29.4283 10.0005 29.4697 10.15C29.5111 10.2995 29.5159 10.4566 29.4837 10.6036L27.8274 18.3347C27.7186 18.844 27.7204 19.3844 27.8327 19.9094C27.945 20.4343 28.1645 20.9281 28.4723 21.3483L33.147 27.723C33.2362 27.844 33.2958 27.9893 33.3189 28.1424C33.3421 28.2955 33.328 28.4502 33.2781 28.589C33.2283 28.7278 33.1447 28.8451 33.037 28.9276C32.9292 29.01 32.8016 29.0543 32.6686 29.0554L25.6803 29.1435C25.2189 29.1493 24.773 29.285 24.381 29.5389C23.989 29.7928 23.6627 30.1573 23.4301 30.601L19.9093 37.3222C19.8427 37.4505 19.745 37.5522 19.6272 37.6158C19.5095 37.6794 19.3765 37.7023 19.2434 37.6818C19.1102 37.6613 18.9823 37.5984 18.8742 37.5001C18.7661 37.4018 18.6822 37.2722 18.6319 37.1259L15.9594 29.4474C15.7836 28.9415 15.5066 28.4846 15.1522 28.116C14.7978 27.7475 14.3767 27.4783 13.925 27.3317L7.06971 25.1103Z" stroke="#FF69B4" stroke-opacity="0.3" stroke-width="2.66667" stroke-linecap="round" stroke-linejoin="round"/>
</g>
<defs>
<clipPath id="clip0_2_54">
<rect width="37.4881" height="32" fill="white" transform="translate(7.84438 43.3542) rotate(-102.078)"/>
</clipPath>
</defs>
</svg>
