<svg width="28" height="32" viewBox="0 0 28 32" fill="none" xmlns="http://www.w3.org/2000/svg">
<g clip-path="url(#clip0_2_156)">
<path d="M11.6791 24.3729C13.3266 26.1852 15.289 28.0113 17.7682 27.9226C19.3475 27.8661 20.836 27.0851 21.9064 25.7514C22.9768 24.4178 23.5414 22.6407 23.4759 20.8112C23.397 18.6037 22.8 17.0678 21.1087 15.2446C22.6653 13.3051 23.151 11.7305 23.072 9.52302C23.0066 7.69347 22.3164 5.9613 21.1535 4.70757C19.9905 3.45384 18.4499 2.78125 16.8707 2.83776C14.3806 2.92685 12.5533 4.87601 11.0508 6.81354L3.78645 15.8644L11.6791 24.3729Z" stroke="#FF69B4" stroke-opacity="0.3" stroke-width="2.16667" stroke-linecap="round" stroke-linejoin="round"/>
</g>
<defs>
<clipPath id="clip0_2_156">
<rect width="30.121" height="26" fill="white" transform="translate(25.9834) rotate(87.9508)"/>
</clipPath>
</defs>
</svg>
