<svg width="30" height="29" viewBox="0 0 30 29" fill="none" xmlns="http://www.w3.org/2000/svg">
<g clip-path="url(#clip0_2_166)">
<path d="M16.3275 4.83757C16.3909 4.76106 16.4752 4.7036 16.5709 4.67168C16.6666 4.63976 16.7699 4.63465 16.8691 4.65692C16.9683 4.6792 17.0595 4.72797 17.1323 4.79773C17.2052 4.86749 17.2568 4.95547 17.2814 5.05174L18.576 10.1379C18.6613 10.4727 18.8285 10.7833 19.0632 11.0431C19.2979 11.3028 19.5931 11.504 19.9235 11.6293L24.9453 13.5316C25.0404 13.5675 25.1237 13.6285 25.1857 13.7077C25.2477 13.787 25.2859 13.8813 25.2961 13.9799C25.3062 14.0786 25.2878 14.1777 25.243 14.2661C25.1981 14.3544 25.1287 14.4285 25.0424 14.4799L20.494 17.1873C20.194 17.366 19.944 17.6136 19.7654 17.9088C19.5869 18.204 19.4852 18.538 19.4691 18.8819L19.2287 24.0959C19.2247 24.1953 19.192 24.2912 19.1344 24.3727C19.0769 24.4541 18.9968 24.518 18.9033 24.5568C18.8098 24.5956 18.7066 24.608 18.6056 24.5923C18.5045 24.5767 18.4097 24.5338 18.3319 24.4685L14.2266 21.0583C13.9561 20.8338 13.6344 20.6761 13.2893 20.5986C12.9442 20.5211 12.586 20.5262 12.2455 20.6135L7.07747 21.9417C6.97927 21.9672 6.87536 21.9652 6.77754 21.9361C6.67973 21.9069 6.59194 21.8517 6.52416 21.7767C6.45639 21.7016 6.41135 21.6099 6.39417 21.5118C6.37698 21.4136 6.38834 21.3131 6.42696 21.2217L8.43738 16.4061C8.57014 16.0882 8.62113 15.7427 8.58596 15.3993C8.55078 15.0559 8.4305 14.7249 8.23548 14.435L5.28075 10.0441C5.22415 9.96068 5.19254 9.86377 5.18951 9.76437C5.18648 9.66497 5.21216 9.56708 5.26361 9.48185C5.31507 9.39663 5.39023 9.32749 5.48055 9.28232C5.57086 9.23715 5.67269 9.21776 5.77444 9.22636L11.1262 9.65414C11.4787 9.68255 11.832 9.62715 12.1556 9.49271C12.4792 9.35826 12.7635 9.1488 12.9839 8.88236L16.3275 4.83757Z" stroke="#FF69B4" stroke-opacity="0.3" stroke-width="2" stroke-linecap="round" stroke-linejoin="round"/>
</g>
<defs>
<clipPath id="clip0_2_166">
<rect width="24.6993" height="24" fill="white" transform="translate(5.25757) rotate(12.6541)"/>
</clipPath>
</defs>
</svg>
